# xmcd
#
# Track frame offsets:
# 150
# 14995
# 27851
# 43023
# 57576
# 72091
# 81339
# 96507
# 108699
# 125925
# 136508
# 153470
# 168945
# 184738
# 196624
#
# Disc length: 2747 seconds
#
#
# Revision: 2
# Processed by: cddbd v1.5.1PL2 Copyright (c) Steve Scherf et al.
# Submitted via: FreeRIP 2.944 
#
DISCID=d60ab90f
DTITLE=Harry James - Concerto for Trumpet 3/4
DYEAR=1900
DGENRE=Big Band
TTITLE0=Music Makers
TTITLE1=Concerto For Trumpet
TTITLE2=Flatbush Flanagan
TTITLE3=Don't Be That Way
TTITLE4=September Song from Knickerbocker Holiday
TTITLE5=There They Go
TTITLE6=You Turned The Tables On Me
TTITLE7=The Arrival
TTITLE8=Six, Two And Even
TTITLE9=(Ex)Cept February, Which Has 28
TTITLE10=Things Ain't What They Used To be
TTITLE11=I May Be Wrong
TTITLE12=Lover
TTITLE13=Snooty Fruity
TTITLE14=Bells
EXTD=
EXTT0=
EXTT1=
EXTT2=
EXTT3=
EXTT4=
EXTT5=
EXTT6=
EXTT7=
EXTT8=
EXTT9=
EXTT10=
EXTT11=
EXTT12=
EXTT13=
EXTT14=
PLAYORDER=
